# Blender 4.2.2 LTS
# www.blender.org
mtllib untitled.mtl
o Cube
v -12.531694 -0.774358 -0.966239
v 5.963262 -4.439201 -5.071766
v -12.531694 -0.719209 -3.299972
v 5.963262 -4.622140 0.805556
v -12.531694 -1.112424 -0.966239
v -5.963262 -1.758034 -5.071766
v -12.531694 -1.057275 -3.299972
v -5.963262 -1.940973 0.805556
v 4.814655 1.000000 -3.923159
v 5.963262 -3.587809 -5.071766
v 4.814655 1.000000 -0.343052
v 5.963262 -3.770748 0.805556
v -4.814655 1.000000 -3.923159
v -5.963262 -0.906641 -5.071766
v -4.814655 1.000000 -0.343052
v -5.963262 -1.089580 0.805556
v 5.963262 -0.241966 -10.118402
v -5.963262 -0.241966 -10.118402
v 5.963262 0.609427 -10.118402
v -5.963262 0.609427 -10.118402
v -5.963262 -0.059027 6.185705
v 5.963262 -0.059027 6.185705
v -5.963262 0.792365 6.185705
v 5.963262 0.792365 6.185705
v 11.755541 0.740196 0.805556
v 11.755541 0.923135 -5.071766
v 11.755541 1.591589 0.805556
v 11.755541 1.774528 -5.071766
vn -1.0000 -0.0000 -0.0000
vn 0.0382 0.9988 0.0290
vn -0.2192 -0.9752 -0.0304
vn -0.0000 1.0000 -0.0000
vn -0.6792 0.7336 0.0228
vn 0.0395 0.3173 0.9475
vn 0.9712 0.2384 0.0046
vn -0.8669 0.4983 0.0096
vn 0.0414 0.3332 -0.9419
vn 1.0000 -0.0000 -0.0000
vn -0.2604 -0.0000 -0.9655
vn -0.1156 -0.9929 -0.0288
vn -0.2604 -0.0000 0.9655
vn -0.0000 -0.0000 -1.0000
vn -0.0974 -0.8661 -0.4903
vn 0.0974 0.8661 0.4903
vn -0.0000 -0.0000 1.0000
vn -0.0960 -0.8539 0.5115
vn 0.0960 0.8539 -0.5115
vn 0.6792 -0.7336 -0.0228
vt 0.481424 1.000000
vt 0.375000 1.000000
vt 0.875000 0.750000
vt 0.875000 0.500000
vt 0.375000 0.000000
vt 0.481424 0.000000
vt 0.481424 0.250000
vt 0.375000 0.250000
vt 0.125000 0.500000
vt 0.375000 0.500000
vt 0.375000 0.750000
vt 0.125000 0.750000
vt 0.649077 0.548858
vt 0.850923 0.548858
vt 0.850923 0.701142
vt 0.649077 0.701142
vt 0.481424 0.500000
vt 0.481424 0.750000
vt 0.625000 0.750000
vt 0.625000 0.500000
s 0
usemtl Material
f 16/1/1 8/2/1 21/2/1 23/1/1
f 16/3/2 14/4/2 3/4/2 1/3/2
f 5/5/1 1/6/1 3/7/1 7/8/1
f 6/9/3 2/10/3 4/11/3 8/12/3
f 9/13/4 13/14/4 15/15/4 11/16/4
f 10/17/5 12/18/5 27/18/5 28/17/5
f 11/16/6 15/15/6 16/3/6 12/19/6
f 9/13/7 11/16/7 12/18/7 10/17/7
f 15/15/8 13/14/8 14/4/8 16/3/8
f 13/14/9 9/13/9 10/20/9 14/4/9
f 10/17/10 2/10/10 17/10/10 19/17/10
f 14/7/11 6/8/11 7/8/11 3/7/11
f 6/9/12 8/12/12 5/12/12 7/9/12
f 8/2/13 16/1/13 1/1/13 5/2/13
f 18/8/14 20/7/14 19/17/14 17/10/14
f 2/10/15 6/9/15 18/9/15 17/10/15
f 14/4/16 10/20/16 19/20/16 20/4/16
f 6/8/1 14/7/1 20/7/1 18/8/1
f 22/11/17 24/18/17 23/1/17 21/2/17
f 8/12/18 4/11/18 22/11/18 21/12/18
f 12/19/19 16/3/19 23/3/19 24/19/19
f 4/11/10 12/18/10 24/18/10 22/11/10
f 26/10/10 28/17/10 27/18/10 25/11/10
f 2/10/14 10/17/14 28/17/14 26/10/14
f 12/18/17 4/11/17 25/11/17 27/18/17
f 4/11/20 2/10/20 26/10/20 25/11/20
